<?xml version="1.0" encoding="utf-8"?>
<!-- Generator: Adobe Illustrator 24.0.1, SVG Export Plug-In . SVG Version: 6.00 Build 0)  -->
<svg version="1.1" id="Layer_1" xmlns="http://www.w3.org/2000/svg" xmlns:xlink="http://www.w3.org/1999/xlink" x="0px" y="0px"
	 viewBox="0 0 153.5 32.6" style="enable-background:new 0 0 153.5 32.6;" xml:space="preserve">
<style type="text/css">
	.st0{fill:#FFFFFF;}
	.st1{fill-rule:evenodd;clip-rule:evenodd;fill:#FFFFFF;}
</style>
<g>
	<path d="M16.3,32.6h120.8c9,0,16.3-7.3,16.3-16.3l0,0c0-9-7.3-16.3-16.3-16.3H16.3C7.3,0,0,7.3,0,16.3l0,0
		C0,25.3,7.3,32.6,16.3,32.6z"/>
	<g>
		<path class="st0" d="M22.3,19.9c-0.4,0-0.7-0.1-1-0.2s-0.5-0.3-0.7-0.5s-0.3-0.4-0.4-0.7c-0.1-0.3-0.1-0.5-0.1-0.8v-1.9h1.2v1.7
			c0,0.4,0.1,0.7,0.3,0.9s0.5,0.3,1,0.3h4.7c0.7,0,1.1-0.3,1.1-1v-1.8h1.2v2c0,0.3-0.1,0.6-0.2,0.9s-0.3,0.5-0.5,0.6
			s-0.4,0.3-0.7,0.4s-0.5,0.1-0.8,0.1L22.3,19.9L22.3,19.9z M24.5,22.7h-1.3v-1.2h1.3V22.7z M25.5,24.5h-1.3v-1.2h1.3V24.5z
			 M26.4,22.7h-1.3v-1.2h1.3V22.7z"/>
		<path class="st0" d="M31.2,11.1h1.2v8.8h-1.2V11.1z"/>
		<path class="st0" d="M41.3,18.7c0.7,0,1.1-0.3,1.1-1v-1.8h1.2v1.8c0,0.2,0,0.4,0.1,0.5s0.2,0.2,0.3,0.3c0.1,0.1,0.2,0.1,0.4,0.2
			s0.3,0.1,0.4,0.1H45c0.1,0,0.2,0.1,0.2,0.1c0,0.1,0.1,0.2,0.1,0.5c0,0.2,0,0.4-0.1,0.5c0,0.1-0.1,0.2-0.2,0.2h-0.3
			c-0.3,0-0.7-0.1-1-0.2S43.2,19.4,43,19c-0.2,0.4-0.5,0.6-0.8,0.7s-0.6,0.2-0.9,0.2h-4.9c-0.4,0-0.7-0.1-1-0.2s-0.5-0.3-0.7-0.5
			s-0.3-0.4-0.4-0.7c-0.1-0.3-0.1-0.5-0.1-0.8v-1.9h1.2v1.7c0,0.4,0.1,0.7,0.3,0.9s0.5,0.3,1,0.3H41.3L41.3,18.7z M39.6,22.7h-1.4
			v-1.2h1.4V22.7z"/>
		<path class="st0" d="M46,18.7c0.7,0,1.1-0.3,1.1-1v-1.8h1.2v1.8c0,0.2,0,0.4,0.1,0.5s0.1,0.2,0.2,0.3c0.1,0.1,0.2,0.1,0.4,0.2
			c0.1,0,0.3,0.1,0.4,0.1h0.4c0.2,0,0.3,0.2,0.3,0.6S50,20,49.8,20h-0.4c-0.3,0-0.7-0.1-1-0.2s-0.6-0.4-0.8-0.7
			c-0.2,0.4-0.5,0.6-0.8,0.7S46.2,20,45.9,20h-1c-0.1,0-0.2-0.1-0.2-0.1c0-0.1-0.1-0.2-0.1-0.4c0-0.2,0-0.4,0.1-0.5
			c0-0.1,0.1-0.2,0.2-0.2H46V18.7z M47,22.7h-1.3v-1.2H47V22.7z M48.9,22.7h-1.2v-1.2h1.2V22.7z"/>
		<path class="st0" d="M50.4,18.7c0.8,0,1.1-0.3,1.1-1v-1.8h1.2v1.8c0,0.2,0,0.4,0.1,0.5s0.2,0.2,0.3,0.3c0.1,0.1,0.2,0.1,0.4,0.2
			s0.3,0.1,0.4,0.1c0.8,0,1.2-0.3,1.2-1V16h1.2v1.8c0,0.4,0.1,0.7,0.3,0.8c0.2,0.1,0.4,0.2,0.7,0.2s0.6-0.1,0.8-0.3
			c0.2-0.2,0.3-0.4,0.3-0.8v-1.8h1.2v1.9c0,0.7-0.2,1.3-0.6,1.6c-0.4,0.4-0.9,0.6-1.6,0.6c-0.3,0-0.7-0.1-0.9-0.2
			c-0.3-0.1-0.6-0.4-0.8-0.7c-0.2,0.4-0.5,0.6-0.8,0.7s-0.6,0.2-1,0.2s-0.7-0.1-1-0.2S52.2,19.4,52,19c-0.2,0.4-0.5,0.6-0.8,0.7
			s-0.6,0.2-0.9,0.2h-0.5c-0.1,0-0.2-0.1-0.2-0.1c0-0.1-0.1-0.2-0.1-0.4c0-0.2,0-0.4,0.1-0.5c0-0.1,0.1-0.2,0.2-0.2H50.4L50.4,18.7z
			"/>
		<path class="st0" d="M64.5,21.1c-0.2,0.4-0.4,0.8-0.7,1.2s-0.7,0.6-1.1,0.8s-0.9,0.3-1.3,0.3h-0.9l-0.1-1.2h0.7
			c0.4,0,0.8-0.1,1.2-0.2c0.3-0.1,0.6-0.3,0.8-0.6s0.3-0.5,0.4-0.8c0.1-0.3,0.1-0.6,0.1-0.9v-3.9h1.2v3.9
			C64.8,20.2,64.7,20.7,64.5,21.1z M64.8,14.1h-1.4v-1.2h1.4V14.1z"/>
		<path class="st0" d="M66.5,11.1h1.2v8.8h-1.2V11.1z"/>
		<path class="st0" d="M78.6,18.7c0.7,0,1.1-0.3,1.1-1v-1.8h1.2v1.8c0,0.2,0,0.4,0.1,0.5s0.1,0.2,0.3,0.3c0.1,0.1,0.2,0.1,0.4,0.2
			s0.3,0.1,0.4,0.1h0.3c0.1,0,0.2,0.1,0.2,0.1c0,0.1,0.1,0.2,0.1,0.5c0,0.2,0,0.4-0.1,0.5c0,0.1-0.1,0.2-0.2,0.2H82
			c-0.4,0-0.7-0.1-1-0.2s-0.6-0.4-0.8-0.7c-0.2,0.4-0.5,0.6-0.8,0.7s-0.6,0.2-0.9,0.2h-4.9c-0.4,0-0.7-0.1-1-0.2s-0.5-0.3-0.7-0.5
			s-0.3-0.4-0.4-0.7c-0.1-0.3-0.1-0.5-0.1-0.8V16h1.2v1.7c0,0.4,0.1,0.7,0.3,0.9s0.5,0.3,1,0.3L78.6,18.7L78.6,18.7z M75.9,14.6
			h-1.3v-1.2h1.3V14.6z M77.8,14.6h-1.3v-1.2h1.3V14.6z"/>
		<path class="st0" d="M84.1,18.7c0.3,0,0.5,0,0.7,0s0.4,0,0.6,0.1c-0.4-0.2-0.8-0.3-1.1-0.5c-0.3-0.2-0.4-0.3-0.6-0.5
			s-0.2-0.4-0.2-0.6s-0.1-0.5-0.1-0.7s0.1-0.5,0.1-0.8c0.1-0.3,0.2-0.5,0.4-0.7s0.4-0.4,0.8-0.6c0.3-0.1,0.6-0.2,1-0.2
			s0.7,0.1,1,0.1s0.6,0.2,0.8,0.5c0.2,0.2,0.4,0.5,0.5,0.9c0.1,0.4,0.2,0.8,0.2,1.3v0.7c0,0.7-0.2,1.3-0.7,1.7S86.4,20,85.4,20h-3.3
			c-0.1,0-0.2-0.1-0.2-0.1c0-0.1-0.1-0.2-0.1-0.4c0-0.2,0-0.4,0.1-0.5c0-0.1,0.1-0.2,0.2-0.2L84.1,18.7L84.1,18.7z M85.8,15.3
			c-0.2,0-0.4,0-0.5,0.1s-0.3,0.2-0.4,0.3s-0.2,0.2-0.2,0.4s-0.1,0.3-0.1,0.4s0,0.3,0.1,0.4s0.1,0.3,0.3,0.4s0.4,0.3,0.7,0.4
			s0.7,0.3,1.2,0.5c0.1-0.1,0.2-0.2,0.3-0.4c0.1-0.2,0.1-0.4,0.1-0.6V17c0-0.5-0.1-0.9-0.3-1.2C86.6,15.5,86.3,15.3,85.8,15.3z
			 M86.5,12.8h-1.4v-1.2h1.4V12.8z"/>
		<path class="st0" d="M91.9,19.9c-0.3,0-0.5,0-0.7-0.1s-0.4-0.2-0.6-0.4s-0.3-0.4-0.4-0.7c-0.1-0.3-0.2-0.6-0.2-1v-6.6h1.2v6.3
			c0,0.4,0.1,0.6,0.2,0.9s0.4,0.3,0.8,0.3h0.3c0.2,0,0.3,0.2,0.3,0.6s-0.1,0.6-0.3,0.6h-0.6V19.9z"/>
		<path class="st0" d="M92.4,19.9c-0.1,0-0.2-0.1-0.2-0.1c0-0.1-0.1-0.2-0.1-0.4c0-0.2,0-0.4,0.1-0.5c0-0.1,0.1-0.2,0.2-0.2h3.2
			c0.3,0,0.6-0.1,0.8-0.3c0.2-0.2,0.3-0.4,0.3-0.8v-1.8h1.2v1.9c0,0.7-0.2,1.3-0.6,1.6c-0.4,0.4-0.9,0.6-1.6,0.6L92.4,19.9
			L92.4,19.9z M94.2,22.7H93v-1.2h1.3v1.2H94.2z M96.2,22.7H95v-1.2h1.2V22.7z"/>
		<path class="st0" d="M97.3,22.1h0.2c0.4,0,0.8-0.1,1.1-0.2s0.6-0.3,0.8-0.6s0.4-0.5,0.4-0.8c0.1-0.3,0.1-0.6,0.1-0.9v-3.9h1.2v3.9
			c0,0.5-0.1,1-0.3,1.5c-0.2,0.4-0.4,0.8-0.7,1.2c-0.3,0.3-0.7,0.6-1.1,0.8s-0.9,0.3-1.3,0.3h-0.4L97.3,22.1z"/>
		<path class="st0" d="M107.9,16.4c0.2,0.3,0.4,0.6,0.5,0.8s0.2,0.6,0.2,0.8c0,0.2-0.1,0.5-0.1,0.7s-0.2,0.4-0.4,0.6
			c-0.2,0.2-0.4,0.3-0.7,0.4c-0.3,0.1-0.6,0.1-0.9,0.1h-3.9l-0.1-1.2h3.8c0.3,0,0.5-0.1,0.7-0.2s0.2-0.3,0.2-0.5s-0.1-0.5-0.3-0.7
			l-2.5-2.9l0.9-0.9L107.9,16.4z"/>
	</g>
</g>
<g>
	<path class="st0" d="M131.5,7.3c0.3-2.8,2.9-4.8,5.7-4.5l0.5,0.1c0.1,0,0.1,0.1,0.1,0.2l-0.1,0.5c-0.3,2.8-2.9,4.8-5.7,4.5L131.5,8
		c-0.1,0-0.1-0.1-0.1-0.2L131.5,7.3z"/>
	<path class="st1" d="M128.6,9.7c-3.2,0-5.7,2.6-5.7,5.7v7c0,3.2,2.6,5.7,5.7,5.7h7c3.2,0,5.7-2.6,5.7-5.7v-7c0-3.2-2.6-5.7-5.7-5.7
		H128.6z M128.9,13.7c-1.1,0-2,0.9-2,2v6.4c0,1.1,0.9,2,2,2h6.4c1.1,0,2-0.9,2-2v-6.4c0-1.1-0.9-2-2-2H128.9z"/>
</g>
</svg>
